<svg width="18.742035" height="19.020996" viewBox="0 0 18.742 19.021" fill="none" xmlns="http://www.w3.org/2000/svg" xmlns:xlink="http://www.w3.org/1999/xlink">
	<desc>
			Created with Pixso.
	</desc>
	<defs/>
	<g opacity="0.890000">
		<path id="Vector" d="M2.14424 4.42969C2.06473 3.88281 2.44331 3.37549 2.98984 3.2959L10.9065 2.14404C11.453 2.06445 11.9605 2.44336 12.04 2.98975L12.221 4.23291L14.242 4.23291L13.8752 1.71191C13.7162 0.619141 12.7011 -0.138184 11.6081 0.0209961L1.7123 1.46094C0.619232 1.61963 -0.137939 2.63477 0.0211029 3.72803L1.46097 13.6235C1.60593 14.6201 2.46201 15.3374 3.44012 15.3359L3.44012 13.4082C3.44012 13.3599 3.43665 13.312 3.4297 13.2642L2.14424 4.42969ZM6.74203 5.021L16.742 5.021C17.8466 5.021 18.742 5.9165 18.742 7.021L18.742 17.021C18.742 18.1255 17.8466 19.021 16.742 19.021L6.74203 19.021C5.63747 19.021 4.74203 18.1255 4.74203 17.021L4.74203 7.021C4.74203 5.9165 5.63747 5.021 6.74203 5.021ZM7.74203 7.021L15.742 7.021C16.2943 7.021 16.742 7.46875 16.742 8.021L16.742 16.021C16.742 16.5732 16.2943 17.021 15.742 17.021L7.74203 17.021C7.18974 17.021 6.74203 16.5732 6.74203 16.021L6.74203 8.021C6.74203 7.46875 7.18974 7.021 7.74203 7.021ZM9.74203 15.1367L9.74203 8.90527C9.74203 8.74316 9.92416 8.64844 10.0567 8.74121L14.508 11.8569C14.6217 11.937 14.6217 12.105 14.508 12.1851L10.0567 15.3008C9.92416 15.3936 9.74203 15.2988 9.74203 15.1367Z" fill="#737373" fill-opacity="1.000000" fill-rule="evenodd"/>
		<path id="Vector" d="M14.0965 3.23291L13.8752 1.71191C13.7162 0.619141 12.7011 -0.138184 11.6081 0.0209961L1.7123 1.46094C0.619232 1.61963 -0.137939 2.63477 0.0211029 3.72803L1.46097 13.6235C1.55264 14.2539 1.92868 14.772 2.44012 15.0679C2.73608 15.2388 3.07736 15.3354 3.43513 15.3359L3.44012 15.3359L3.44012 13.4082C3.44012 13.3599 3.43665 13.312 3.4297 13.2642L2.14424 4.42969C2.06473 3.88281 2.44331 3.37549 2.98984 3.2959L10.9065 2.14404C11.453 2.06445 11.9605 2.44336 12.04 2.98975L12.1901 4.021L12.221 4.23291L14.242 4.23291L14.2112 4.021L14.0965 3.23291ZM15.3672 5.021L6.74203 5.021C5.63747 5.021 4.74203 5.9165 4.74203 7.021L4.74203 17.021C4.74203 18.1255 5.63747 19.021 6.74203 19.021L16.742 19.021C17.8466 19.021 18.742 18.1255 18.742 17.021L18.742 7.021C18.742 5.9165 17.8466 5.021 16.742 5.021L15.3672 5.021ZM11.1831 1.1377Q10.9745 1.12354 10.7629 1.1543L11.7521 1.01074Q11.8747 0.992676 11.9945 1.00439Q12.072 1.01172 12.1482 1.03174Q12.2308 1.05322 12.3074 1.08789Q12.4056 1.13281 12.494 1.19873Q12.5824 1.26465 12.6529 1.3457Q12.708 1.40967 12.7523 1.48242Q12.7931 1.5498 12.8225 1.62207Q12.8678 1.7334 12.8856 1.85596L13.0296 2.84521Q12.9988 2.63379 12.9261 2.4375Q12.8607 2.26123 12.7616 2.09766Q12.6637 1.93604 12.5397 1.79785Q12.4078 1.65088 12.2463 1.53076Q12.0849 1.41016 11.9064 1.32568Q11.7386 1.24609 11.5559 1.19824Q11.3707 1.1499 11.1831 1.1377ZM1.85628 2.4502L2.84586 2.30615Q2.63408 2.3374 2.43784 2.41016Q2.26158 2.4751 2.09787 2.57422Q1.93626 2.67236 1.79811 2.79639Q1.65115 2.92822 1.53072 3.08984Q1.41029 3.25098 1.32573 3.42969Q1.24625 3.59717 1.19847 3.78027Q1.15007 3.96533 1.13766 4.15283Q1.12389 4.36133 1.15453 4.57227L1.01068 3.58398Q0.992844 3.46143 1.00453 3.34131Q1.01212 3.26416 1.03204 3.18799Q1.05362 3.10498 1.08832 3.02881Q1.13275 2.93066 1.19872 2.8418Q1.26466 2.75342 1.34608 2.68311Q1.40965 2.62793 1.48265 2.5835Q1.55005 2.54297 1.62215 2.51367Q1.73361 2.46826 1.85628 2.4502ZM6.50122 6.0498Q6.61807 6.021 6.74203 6.021L15.742 6.021L7.74203 6.021Q7.52802 6.021 7.32335 6.06494Q7.13953 6.104 6.96324 6.17871Q6.78922 6.25195 6.63464 6.35498Q6.47023 6.46436 6.32782 6.60693Q6.18541 6.74902 6.07605 6.91357Q5.97322 7.06836 5.89961 7.24219Q5.82504 7.41846 5.78577 7.60254Q5.74203 7.80713 5.74203 8.021L5.74203 7.021Q5.74203 6.89697 5.77086 6.78027Q5.78951 6.70459 5.82021 6.63184Q5.85344 6.55371 5.8988 6.48242Q5.95692 6.39209 6.03493 6.31396Q6.11293 6.23584 6.20366 6.17773Q6.27451 6.13232 6.35309 6.09912Q6.42567 6.06836 6.50122 6.0498ZM15.742 6.021Q15.9561 6.021 16.1607 6.06494Q16.3445 6.104 16.5208 6.17871Q16.6948 6.25195 16.8494 6.35498Q17.0138 6.46436 17.1562 6.60693Q17.2986 6.74902 17.408 6.91357Q17.5108 7.06836 17.5845 7.24219Q17.659 7.41846 17.6983 7.60254Q17.742 7.80713 17.742 8.021L17.742 7.021Q17.742 6.89697 17.7132 6.78027Q17.6946 6.70459 17.6639 6.63184Q17.6306 6.55371 17.5853 6.48242Q17.5271 6.39209 17.4491 6.31396Q17.3711 6.23584 17.2803 6.17773Q17.2095 6.13232 17.131 6.09912Q17.0584 6.06836 16.9828 6.0498Q16.866 6.021 16.742 6.021L15.742 6.021ZM5.74203 17.021L5.74203 16.0225Q5.74217 16.2358 5.78578 16.4399Q5.82506 16.6235 5.89961 16.7998Q5.97324 16.9736 6.07608 17.1284Q6.18542 17.293 6.32782 17.4351Q6.47025 17.5776 6.63466 17.687Q6.78923 17.79 6.96324 17.8633Q7.13948 17.938 7.32326 17.9771Q7.52797 18.021 7.74203 18.021L6.74203 18.021Q6.61809 18.021 6.50127 17.9922Q6.42569 17.9736 6.35309 17.9429Q6.27451 17.9097 6.20369 17.8643Q6.11293 17.8062 6.03493 17.728Q5.95688 17.6499 5.89876 17.5591Q5.85342 17.4883 5.82021 17.4102Q5.78951 17.3374 5.77086 17.2617Q5.74203 17.145 5.74203 17.021ZM16.742 18.021L15.742 18.021Q15.9561 18.021 16.1607 17.9771Q16.3445 17.938 16.5208 17.8633Q16.6949 17.79 16.8495 17.687Q17.0138 17.5776 17.1562 17.4351Q17.2987 17.293 17.408 17.1284Q17.5108 16.9736 17.5845 16.7998Q17.659 16.6235 17.6983 16.4399Q17.742 16.2349 17.742 16.021L17.742 17.021Q17.742 17.145 17.7132 17.2617Q17.6946 17.3374 17.6639 17.4102Q17.6306 17.4883 17.5853 17.5596Q17.5271 17.6499 17.4491 17.728Q17.3711 17.8062 17.2804 17.8643Q17.2095 17.9097 17.131 17.9429Q17.0584 17.9736 16.9828 17.9922Q16.866 18.021 16.742 18.021ZM15.742 7.021L7.74203 7.021C7.18974 7.021 6.74203 7.46875 6.74203 8.021L6.74203 16.021C6.74203 16.5732 7.18974 17.021 7.74203 17.021L15.742 17.021C16.2943 17.021 16.742 16.5732 16.742 16.021L16.742 8.021C16.742 7.46875 16.2943 7.021 15.742 7.021ZM9.74203 14.3618L9.74203 15.1367C9.74203 15.2988 9.92416 15.3936 10.0567 15.3008L10.6915 14.8564L10.742 14.8208L13.8701 12.6313L13.8733 12.6289L14.508 12.1851C14.6217 12.105 14.6217 11.937 14.508 11.8569L13.8733 11.4131L13.8701 11.4106L10.742 9.22119L10.6915 9.18555L10.0567 8.74121C9.92416 8.64844 9.74203 8.74316 9.74203 8.90527L9.74203 14.3618ZM10.742 13.6001L12.9982 12.021L10.742 10.4419L10.742 13.6001Z" fill="#737373" fill-opacity="1.000000" fill-rule="evenodd"/>
	</g>
</svg>
