<svg width="19.899231" height="19.895508" viewBox="0 0 19.8992 19.8955" fill="none" xmlns="http://www.w3.org/2000/svg" xmlns:xlink="http://www.w3.org/1999/xlink">
	<desc>
			Created with Pixso.
	</desc>
	<defs/>
	<path id="Ellipse 1 (Stroke)" d="M14.5932 16.0513C13.0574 17.2715 11.1138 18 9 18C4.02942 18 0 13.9707 0 9C0 4.0293 4.02942 0 9 0C13.9706 0 18 4.0293 18 9C18 11.0713 17.3004 12.979 16.1245 14.5L19.8288 18.3232C19.9238 18.4214 19.9225 18.5776 19.826 18.6738L18.6777 19.8223C18.5797 19.9204 18.4207 19.9199 18.3232 19.8213L14.5932 16.0513ZM16 9C16 12.8662 12.866 16 9 16C5.13403 16 2 12.8662 2 9C2 5.13379 5.13403 2 9 2C12.866 2 16 5.13379 16 9Z" fill="#737373" fill-opacity="1.000000" fill-rule="evenodd"/>
</svg>
