<svg width="21.000000" height="21.000000" viewBox="0 0 21 21" fill="none" xmlns="http://www.w3.org/2000/svg" xmlns:xlink="http://www.w3.org/1999/xlink">
	<desc>
			Created with Pixso.
	</desc>
	<defs/>
	<path id="Vector" d="M21 10.5C21 16.5752 16.5751 21 10.5 21C4.42487 21 0 16.5752 0 10.5C0 4.4248 4.42487 0 10.5 0C16.5751 0 21 4.4248 21 10.5ZM19 10.5C19 15.4707 15.4706 19 10.5 19C5.52942 19 2 15.4707 2 10.5C2 5.5293 5.52942 2 10.5 2C15.4706 2 19 5.5293 19 10.5ZM5.77551 9.5L3.77551 9.5C3.77551 9.13672 3.90997 8.30566 4.05103 8.05859C4.2019 7.79492 4.40979 7.53906 4.65948 7.31641C5.15912 6.87012 5.88824 6.5 6.77551 6.5C7.66278 6.5 8.39185 6.87012 8.89154 7.31641C9.14124 7.53906 9.34906 7.79492 9.5 8.05859C9.64099 8.30566 9.77551 9.13672 9.77551 9.5L7.77551 9.5L7.72424 9.33594C7.61646 8.99121 7.42859 8.64062 7.08057 8.54199C6.98456 8.51562 6.88245 8.5 6.77551 8.5C6.66852 8.5 6.56647 8.51562 6.47046 8.54199C6.12238 8.64062 5.93457 8.99121 5.82678 9.33594L5.77551 9.5ZM11.5 9.5L13.5 9.5L13.5513 9.33594C13.6591 8.99121 13.8469 8.64062 14.1949 8.54199C14.291 8.51562 14.393 8.5 14.5 8.5C14.6069 8.5 14.709 8.51562 14.8051 8.54199C15.1531 8.64062 15.3409 8.99121 15.4487 9.33594L15.5 9.5L17.5 9.5C17.5 9.13672 17.3655 8.30566 17.2245 8.05859C17.0735 7.79492 16.8657 7.53906 16.616 7.31641C16.1163 6.87012 15.3873 6.5 14.5 6.5C13.6127 6.5 12.8836 6.87012 12.384 7.31641C12.1343 7.53906 11.9264 7.79492 11.7755 8.05859C11.6345 8.30566 11.5 9.13672 11.5 9.5ZM4.70001 13.0996C5.54938 14.2324 7.14441 15.6191 9.21771 16.0312C11.3796 16.46 13.843 15.7871 16.2372 13.1758L14.7628 11.8242C12.757 14.0127 10.9704 14.3398 9.6073 14.0693C8.15564 13.7812 6.95062 12.7676 6.29999 11.9004L4.70001 13.0996Z" fill="#E6E6E6" fill-opacity="1.000000" fill-rule="evenodd"/>
</svg>
