<svg width="21.000000" height="21.000000" viewBox="0 0 21 21" fill="none" xmlns="http://www.w3.org/2000/svg" xmlns:xlink="http://www.w3.org/1999/xlink">
	<desc>
			Created with Pixso.
	</desc>
	<defs/>
	<path id="Vector" d="M21 10.5C21 16.5752 16.5751 21 10.5 21C4.42487 21 0 16.5752 0 10.5C0 4.4248 4.42487 0 10.5 0C16.5751 0 21 4.4248 21 10.5ZM19 10.5C19 15.4707 15.4706 19 10.5 19C5.52945 19 2 15.4707 2 10.5C2 5.5293 5.52945 2 10.5 2C15.4706 2 19 5.5293 19 10.5ZM5.77551 9.5L3.77551 9.5C3.77551 9.13623 3.91 8.30518 4.05103 8.05859C4.20193 7.79443 4.40976 7.53955 4.65948 7.31641C5.15915 6.87061 5.88824 6.5 6.77551 6.5C7.66278 6.5 8.39188 6.87061 8.89151 7.31641C9.14127 7.53955 9.34909 7.79443 9.5 8.05859C9.64102 8.30518 9.77551 9.13623 9.77551 9.5L7.77551 9.5L7.72427 9.33594C7.61642 8.99072 7.42862 8.64062 7.08057 8.54248C6.98453 8.51514 6.88248 8.5 6.77551 8.5C6.66855 8.5 6.56647 8.51514 6.47046 8.54248C6.12241 8.64062 5.93457 8.99072 5.82675 9.33594L5.77551 9.5ZM11.5 9.5L13.5 9.5L13.5512 9.33594C13.6591 8.99072 13.8469 8.64062 14.1949 8.54248C14.291 8.51514 14.393 8.5 14.5 8.5C14.607 8.5 14.709 8.51514 14.8051 8.54248C15.1531 8.64062 15.3409 8.99072 15.4488 9.33594L15.5 9.5L17.5 9.5C17.5 9.13623 17.3655 8.30518 17.2245 8.05859C17.0736 7.79443 16.8658 7.53955 16.616 7.31641C16.1164 6.87061 15.3873 6.5 14.5 6.5C13.6127 6.5 12.8836 6.87061 12.384 7.31641C12.1342 7.53955 11.9264 7.79443 11.7755 8.05859C11.6345 8.30518 11.5 9.13623 11.5 9.5ZM4.70001 13.1001C5.54938 14.2324 7.14438 15.6191 9.21771 16.0308C11.3796 16.46 13.843 15.7876 16.2372 13.1758L14.7628 11.8242C12.757 14.0127 10.9704 14.3398 9.60727 14.0693C8.15561 13.7808 6.95062 12.7676 6.29999 11.8999L4.70001 13.1001Z" fill="#737373" fill-opacity="1.000000" fill-rule="evenodd"/>
</svg>
