<svg width="13.500000" height="14.939941" viewBox="0 0 13.5 14.9399" fill="none" xmlns="http://www.w3.org/2000/svg" xmlns:xlink="http://www.w3.org/1999/xlink">
	<desc>
			Created with Pixso.
	</desc>
	<defs/>
	<path id="Vector" d="M11.25 10.5601C10.6799 10.5601 10.1699 10.785 9.78003 11.1375L4.43262 8.02502C4.46997 7.85254 4.5 7.68005 4.5 7.5C4.5 7.31995 4.46997 7.14746 4.43262 6.97498L9.71997 3.89246C10.125 4.26746 10.6575 4.5 11.25 4.5C12.4951 4.5 13.5 3.495 13.5 2.25C13.5 1.005 12.4951 0 11.25 0C10.0049 0 9 1.005 9 2.25C9 2.43005 9.03003 2.60254 9.06738 2.77502L3.78003 5.85754C3.375 5.48254 2.84253 5.25 2.25 5.25C1.00488 5.25 0 6.255 0 7.5C0 8.745 1.00488 9.75 2.25 9.75C2.84253 9.75 3.375 9.51746 3.78003 9.14246L9.12012 12.2625C9.08252 12.42 9.06006 12.585 9.06006 12.75C9.06006 13.9575 10.0425 14.9399 11.25 14.9399C12.4575 14.9399 13.4399 13.9575 13.4399 12.75C13.4399 11.5425 12.4575 10.5601 11.25 10.5601ZM11.25 1.5C11.6626 1.5 12 1.83752 12 2.25C12 2.66248 11.6626 3 11.25 3C10.8374 3 10.5 2.66248 10.5 2.25C10.5 1.83752 10.8374 1.5 11.25 1.5ZM2.25 8.25C1.8374 8.25 1.5 7.91248 1.5 7.5C1.5 7.08752 1.8374 6.75 2.25 6.75C2.6626 6.75 3 7.08752 3 7.5C3 7.91248 2.6626 8.25 2.25 8.25ZM11.25 13.515C10.8374 13.515 10.5 13.1775 10.5 12.765C10.5 12.3525 10.8374 12.015 11.25 12.015C11.6626 12.015 12 12.3525 12 12.765C12 13.1775 11.6626 13.515 11.25 13.515Z" fill="#E6E6E6" fill-opacity="1.000000" fill-rule="nonzero"/>
</svg>
