<svg width="13.266174" height="13.263672" viewBox="0 0 13.2662 13.2637" fill="none" xmlns="http://www.w3.org/2000/svg" xmlns:xlink="http://www.w3.org/1999/xlink">
	<desc>
			Created with Pixso.
	</desc>
	<defs/>
	<path id="Ellipse 1 (Stroke)" d="M9.72882 10.7009C8.7049 11.5142 7.40918 12 6 12C2.68628 12 0 9.31372 0 6C0 2.68628 2.68628 0 6 0C9.31372 0 12 2.68628 12 6C12 7.3808 11.5336 8.65271 10.7496 9.66669L13.2192 12.2155C13.2825 12.2809 13.2817 12.3849 13.2173 12.4493L12.4518 13.2148C12.3865 13.2802 12.2805 13.2799 12.2155 13.2142L9.72882 10.7009ZM10.6667 6C10.6667 8.57733 8.57733 10.6667 6 10.6667C3.42267 10.6667 1.33331 8.57733 1.33331 6C1.33331 3.42267 3.42267 1.33331 6 1.33331C8.57733 1.33331 10.6667 3.42267 10.6667 6Z" fill="#737373" fill-opacity="1.000000" fill-rule="evenodd"/>
</svg>
