<svg width="14.000000" height="18.000000" viewBox="0 0 14 18" fill="none" xmlns="http://www.w3.org/2000/svg" xmlns:xlink="http://www.w3.org/1999/xlink">
	<desc>
			Created with Pixso.
	</desc>
	<defs/>
	<mask id="mask_2_68" fill="white">
		<path id=" ↳Color" d="M12 0L2 0C0.900024 0 0 0.900391 0 2L0 18L7 15L14 18L14 2C14 0.900391 13.1 0 12 0ZM7 12.8203L12 15L12 2L2 2L2 15L7 12.8203Z" clip-rule="evenodd" fill="" fill-opacity="1.000000" fill-rule="evenodd"/>
	</mask>
	<path id=" ↳Color" d="M12 0L2 0C0.900024 0 0 0.900391 0 2L0 18L7 15L14 18L14 2C14 0.900391 13.1 0 12 0ZM7 12.8203L12 15L12 2L2 2L2 15L7 12.8203Z" clip-rule="evenodd" fill="#E6E6E6" fill-opacity="1.000000" fill-rule="evenodd" mask="url(#mask_2_68)"/>
	<path id=" ↳Color" d="" fill="#979797" fill-opacity="0.000000" fill-rule="nonzero"/>
</svg>
